<?xml version="1.0" encoding="utf-8"?>
<svg version="1.1" xmlns:xlink="http://www.w3.org/1999/xlink" width="12px" height="12px" viewBox="524 569.5  12 12" xmlns="http://www.w3.org/2000/svg">
  <path d="M 530 569.5  C 533.36 569.5  536 572.14  536 575.5  C 536 578.86  533.36 581.5  530 581.5  C 526.64 581.5  524 578.86  524 575.5  C 524 572.14  526.64 569.5  530 569.5  Z " fill-rule="nonzero" fill="#ffffff" stroke="none" />
  <path d="M 530 570  C 533.08 570  535.5 572.42  535.5 575.5  C 535.5 578.58  533.08 581  530 581  C 526.92 581  524.5 578.58  524.5 575.5  C 524.5 572.42  526.92 570  530 570  Z " stroke-width="1" stroke="#797979" fill="none" />
  <path d="M 530 578.5  C 528.32 578.5  527 577.18  527 575.5  C 527 573.82  528.32 572.5  530 572.5  C 531.68 572.5  533 573.82  533 575.5  C 533 577.18  531.68 578.5  530 578.5  " fill-rule="nonzero" fill="#797979" stroke="none" />
</svg>