<?xml version="1.0" encoding="utf-8"?>
<svg version="1.1" xmlns:xlink="http://www.w3.org/1999/xlink" width="12px" height="12px" viewBox="343 234.5  12 12" xmlns="http://www.w3.org/2000/svg">
  <path d="M 349 234.5  C 352.36 234.5  355 237.14  355 240.5  C 355 243.86  352.36 246.5  349 246.5  C 345.64 246.5  343 243.86  343 240.5  C 343 237.14  345.64 234.5  349 234.5  Z " fill-rule="nonzero" fill="#ffffff" stroke="none" />
  <path d="M 349 235  C 352.08 235  354.5 237.42  354.5 240.5  C 354.5 243.58  352.08 246  349 246  C 345.92 246  343.5 243.58  343.5 240.5  C 343.5 237.42  345.92 235  349 235  Z " stroke-width="1" stroke="#797979" fill="none" />
  <path d="M 349 243.5  C 347.32 243.5  346 242.18  346 240.5  C 346 238.82  347.32 237.5  349 237.5  C 350.68 237.5  352 238.82  352 240.5  C 352 242.18  350.68 243.5  349 243.5  " fill-rule="nonzero" fill="#797979" stroke="none" />
</svg>