<?xml version="1.0" encoding="utf-8"?>
<svg version="1.1" xmlns:xlink="http://www.w3.org/1999/xlink" width="19px" height="21px" xmlns="http://www.w3.org/2000/svg">
  <g transform="matrix(1 0 0 1 -653 -160 )">
    <path d="M 18.5052083333333 6  L 12.6666666666667 6  L 12.6666666666667 0.468750000000001  C 12.8480902777778 0.578124999999999  12.9965277777778 0.687499999999998  13.1119791666667 0.796875000000001  L 18.1588541666667 5.578125  C 18.2743055555556 5.6875  18.3897569444444 5.828125  18.5052083333333 6  Z M 11.0833333333333 0  L 11.0833333333333 6.375  C 11.0833333333333 6.6875  11.1987847222222 6.953125  11.4296875 7.171875  C 11.6605902777778 7.390625  11.9409722222222 7.5  12.2708333333333 7.5  L 19 7.5  L 19 19.875  C 19 20.1875  18.8845486111111 20.453125  18.6536458333333 20.671875  C 18.4227430555556 20.890625  18.1423611111111 21  17.8125 21  L 1.1875 21  C 0.857638888888889 21  0.577256944444445 20.890625  0.346354166666667 20.671875  C 0.115451388888889 20.453125  0 20.1875  0 19.875  L 0 1.125  C 0 0.812499999999999  0.115451388888889 0.546874999999999  0.346354166666667 0.328125  C 0.577256944444445 0.109375000000001  0.857638888888889 0  1.1875 0  L 11.0833333333333 0  Z " fill-rule="nonzero" fill="#000000" stroke="none" transform="matrix(1 0 0 1 653 160 )" />
  </g>
</svg>